# Blender v3.0.0 OBJ File: 'GraphicsProject.blend'
# www.blender.org
mtllib DeadTree.mtl
o DeadTree_Plane.004
v 0.666720 -0.163995 -0.530224
v -1.820684 16.335546 -1.252457
v -2.176071 8.545449 3.588536
v -2.074545 8.803016 3.314225
v -1.726419 8.823825 3.447465
v 3.791217 15.288490 1.208519
v 1.783759 8.558691 -0.916696
v 2.002576 8.578139 -0.825529
v 2.058237 9.087901 -2.436792
v 1.977848 8.876932 -0.920032
v 1.767482 8.875056 -1.090030
v 2.173637 8.953793 -1.970161
v 2.260395 9.358145 -2.239462
v 2.061517 9.347148 -2.366380
v 2.457068 9.333560 -2.475326
v 3.334614 10.496543 -3.234438
v 3.268231 10.468576 -2.930647
v 3.474195 10.490409 -3.131869
v 3.424787 10.661980 -3.102347
v 3.279332 10.640830 -3.142257
v -2.535415 13.901258 -0.730599
v -2.444909 14.729720 -1.624436
v -2.418530 14.111072 -0.836360
v -2.502723 14.825920 -1.528121
v -2.196204 15.424298 -1.705893
v -2.411006 14.862700 -1.457971
v -2.250196 15.077447 -1.688409
v -2.264028 15.390143 -1.593503
v -1.834948 16.248451 -1.280804
v -1.831624 16.318020 -1.250071
v -1.822271 16.331816 -1.255819
v -1.821122 16.334702 -1.254739
v 1.498024 8.108783 -0.572102
v -0.232020 6.383961 0.150760
v -0.540812 6.661422 -0.166447
v 1.552131 8.107137 -0.295693
v 1.380154 8.318791 -0.250418
v 1.364037 8.390491 -0.566147
v 0.695712 3.015080 -0.065188
v 0.966882 3.037858 0.282222
v 0.649103 3.008619 0.243222
v -0.356795 6.237383 -0.166786
v -0.320591 5.976037 0.244851
v -0.655743 5.827113 0.197734
v -0.569138 5.846337 -0.192301
v 0.505150 -0.163995 0.685914
v -0.666720 0.163995 0.530224
v -0.505150 0.163995 -0.685913
v 1.006751 3.045573 -0.020261
v 3.255706 10.997410 -3.216250
v 3.428900 11.012763 -3.206806
v 3.275310 10.998099 -3.382905
v 2.620929 11.753642 -3.417053
v 2.388547 12.621542 -3.444969
v 2.560251 11.865428 -3.583854
v 2.701319 11.935072 -3.575147
v 2.689251 11.916375 -3.429670
v 2.000272 13.614452 -3.782257
v 2.504479 12.787701 -3.451651
v 2.376873 12.826246 -3.599427
v 2.514638 12.832494 -3.599068
v 1.698438 14.317182 -3.955577
v 1.851400 14.167090 -3.932722
v 1.732979 14.182532 -4.038053
v 1.822606 14.351335 -4.057467
v 1.697637 15.502448 -4.323853
v 1.712413 15.534438 -4.409655
v 1.809405 15.556865 -4.412837
v 1.789958 15.495073 -4.331728
v 1.809207 16.926384 -3.718962
v 1.814147 16.264732 -4.151647
v 1.892372 16.481470 -3.984820
v -0.720850 6.202985 0.544696
v -1.085622 6.195376 0.413920
v -1.373190 6.602839 1.744232
v -1.061185 6.513649 0.291064
v -0.620206 6.509681 0.279125
v -1.768417 6.610881 1.674751
v -1.789855 7.230018 2.781776
v -1.534096 7.132231 2.034747
v -2.155309 7.224083 2.659197
v -1.825755 8.588499 3.726281
v -2.086853 7.371164 2.349846
v -1.745075 7.734748 2.749144
v -2.833099 13.171787 5.490674
v -2.583785 12.596031 4.776711
v -2.460979 12.498155 4.554977
v -2.266490 12.415966 4.562899
v -2.944422 13.197291 5.453369
v -2.891674 13.246159 5.359479
v -2.853450 13.414707 5.547461
v -3.024338 15.505490 5.648807
v -0.727190 9.860736 -0.282290
v -0.718871 9.875074 -0.509034
v -0.585087 10.063592 -0.515293
v -0.588326 10.055252 -0.291389
v -2.823494 11.326347 -0.209045
v -2.831797 11.334116 -0.532218
v -2.509715 11.492937 -0.218627
v -2.521303 13.333155 -0.285249
v -2.506754 11.487577 -0.533232
v -2.525072 13.298503 -0.479978
v -2.334543 13.326558 -0.505276
v -2.333762 13.312758 -0.286876
v -2.402011 13.923751 -0.452372
v -2.468003 14.081197 -0.555952
v -2.288108 13.997658 1.331306
v -2.527315 13.932680 -0.426347
v -2.579896 14.068002 -0.687744
v -2.310958 14.097438 1.206028
v -2.410891 14.118344 1.353027
v -2.087896 14.245080 1.865252
v -2.370653 14.036555 1.552988
v -2.153503 14.285931 1.770482
v -2.084350 14.379475 1.992881
v -2.207367 14.350884 1.863241
v -1.465469 15.123463 2.459981
v -1.578502 14.984826 2.288625
v -1.719803 10.141665 3.761633
v -1.982636 10.159631 3.647320
v -1.629688 10.251499 3.506362
v -2.001286 11.351502 4.129947
v -1.880371 10.515016 3.428714
v -1.925421 11.434546 3.949746
v -2.234748 11.528242 4.128626
v -2.240495 12.279180 4.513640
v -2.242191 12.279957 4.683734
v -2.346922 12.401614 4.701230
v -1.106395 12.456500 5.200506
v -1.194918 12.554316 5.328542
v -0.503550 12.657670 5.288651
v -1.075608 12.460025 5.354446
v -1.035948 12.586795 5.260914
v -0.462924 12.805293 5.270092
v -0.569350 12.757986 5.415271
v -0.441236 12.692563 5.394616
v 0.543237 13.258761 5.015057
v 0.755870 13.352296 5.043963
v 1.292241 8.452448 -0.306058
v 1.513656 8.658551 -0.629412
v -0.611796 9.768243 -0.271531
v -0.325333 9.865177 -0.293555
v -0.552373 10.219211 -0.236405
v -0.417462 9.941144 -0.517517
v -0.025896 10.757915 0.286905
v -0.201478 10.739764 0.368688
v -0.275082 10.864076 0.239328
v -0.097797 10.883183 0.162595
v 0.202684 11.031180 1.699194
v 0.028754 10.987931 1.667053
v -0.015575 11.133011 1.653928
v 0.135847 11.148516 1.561483
v 0.402385 11.479452 2.241015
v 0.189234 11.275493 2.203360
v 0.197244 11.584925 2.200966
v 0.399681 11.897311 2.319079
v 0.337351 11.589349 2.117862
v 0.977856 13.398643 2.117751
v 0.877226 13.369260 2.170017
v 1.099857 13.890821 2.417826
v 0.840617 13.466311 2.086662
v 0.947677 13.494396 2.053611
v 3.601564 10.686901 -3.171063
v 3.392869 10.809724 -3.234941
v 3.512829 10.954266 -3.348566
v 3.836828 11.382198 -2.327732
v 3.563460 10.821035 -3.272305
v 3.778557 11.541702 -2.410516
v 3.561110 11.546072 -2.335794
v 3.935816 12.089549 -1.081617
v 3.595623 11.294230 -2.395934
v 3.715655 12.126453 -0.969937
v 3.676852 12.307944 -1.121637
v 3.900646 12.294488 -1.216234
v 4.329249 13.096826 -0.085013
v 4.079324 13.099906 -0.246770
v 4.264539 13.130548 -0.275588
v 4.126852 13.011897 -0.117084
v 4.078164 14.110839 1.056830
v 3.903585 14.818517 1.260581
v 3.884210 14.174989 0.957842
v 3.870908 14.215080 1.222463
v 3.786247 15.221155 1.215089
v 4.005899 14.369807 1.072029
v 3.790027 15.284616 1.207559
v 3.789984 15.287702 1.207769
v 1.878942 8.381397 -0.204377
v 1.484685 8.654759 -0.302771
v 3.238090 9.942780 2.872547
v 1.827201 8.627602 -0.318874
v 3.012239 9.932921 2.952720
v 3.177575 10.118917 2.726200
v 3.196101 11.055323 3.639536
v 2.930921 10.106069 2.781451
v 3.130358 10.854880 3.254149
v 3.007352 10.972403 3.656193
v 3.287776 12.406456 4.239334
v 3.117247 11.718332 3.915204
v 3.283915 11.847779 3.912318
v 3.040309 12.514533 4.134047
v 3.146269 12.299506 4.255938
v 2.575221 13.485991 4.300765
v 3.147084 12.675728 4.123822
v -0.727190 9.860736 -0.282290
v -0.718871 9.875074 -0.509034
v -0.585087 10.063592 -0.515293
v 3.424787 10.661980 -3.102347
v 3.601564 10.686901 -3.171063
vn 0.3277 -0.6968 -0.6380
vn 0.7575 0.2414 0.6065
vn 0.0173 0.9455 0.3251
vn -0.9774 0.0668 -0.2005
vn 0.3683 -0.0536 0.9281
vn -0.6918 -0.6972 -0.1880
vn -0.2843 0.1767 0.9423
vn 0.9713 0.1409 0.1914
vn -0.7399 -0.3521 -0.5732
vn 0.8489 0.4886 0.2018
vn -0.1982 -0.5551 0.8078
vn 0.0000 0.0000 1.0000
vn 0.7607 0.5168 0.3927
vn -0.1392 -0.0587 0.9885
vn -0.9763 0.2161 -0.0061
vn 0.9336 -0.2597 -0.2470
vn 0.0881 -0.2731 -0.9579
vn -0.0574 -0.2532 0.9657
vn 0.5191 0.7190 -0.4621
vn -0.9613 -0.2702 0.0535
vn -0.8727 0.0111 -0.4882
vn -0.8149 -0.5728 -0.0885
vn -0.6701 0.2024 -0.7142
vn 0.6935 -0.2205 0.6859
vn -0.2737 0.7529 0.5985
vn 0.6313 -0.5996 -0.4918
vn -0.6376 0.6017 0.4811
vn -0.9196 -0.2460 -0.3063
vn 0.2490 0.6158 0.7476
vn -0.3137 0.0010 -0.9495
vn -0.8016 0.4967 -0.3328
vn 0.5960 0.1460 -0.7896
vn 0.6692 -0.3268 0.6674
vn -0.8469 0.5065 -0.1618
vn 0.9341 -0.3538 -0.0485
vn 0.7141 -0.6987 0.0419
vn 0.2960 -0.0595 0.9533
vn -0.1577 -0.0542 -0.9860
vn 0.1411 0.0186 -0.9898
vn -0.8846 -0.4130 -0.2168
vn -0.0698 0.1846 0.9803
vn 0.1182 -0.1306 -0.9844
vn 0.7455 0.6504 0.1454
vn -0.9517 -0.2491 0.1793
vn 0.0165 0.0287 0.9995
vn -0.6917 -0.4597 -0.5570
vn -0.3465 0.1584 0.9246
vn 0.0161 -0.3007 -0.9536
vn 0.6866 0.4781 0.5477
vn -0.9187 -0.3490 0.1850
vn 0.1441 0.2909 0.9459
vn 0.9477 0.0998 0.3032
vn 0.9815 -0.1456 0.1244
vn 0.2541 0.5307 -0.8086
vn -0.8885 -0.1043 -0.4468
vn 0.8898 0.0202 0.4560
vn -0.9484 -0.1483 -0.2804
vn 0.9417 -0.0622 0.3306
vn -0.9804 0.1028 -0.1681
vn 0.9647 -0.1537 0.2140
vn -0.4803 -0.7571 0.4428
vn 0.3480 0.7722 -0.5317
vn 0.8292 -0.0604 0.5556
vn 0.9566 0.0916 -0.2766
vn -0.0169 0.0292 -0.9994
vn 0.9956 -0.0931 -0.0094
vn 0.9378 0.3361 -0.0867
vn -0.0617 -0.9971 0.0453
vn 0.1522 0.9877 -0.0370
vn 0.9667 -0.0826 -0.2421
vn 0.3446 -0.8944 0.2852
vn 0.2132 0.8541 -0.4743
vn -0.6426 -0.3426 0.6853
vn 0.7705 -0.1807 -0.6113
vn -0.7324 0.2007 0.6507
vn -0.6272 0.7538 -0.1961
vn -0.8986 -0.0113 -0.4387
vn -0.0046 0.4928 -0.8701
vn 0.9089 0.0639 0.4121
vn -0.4152 -0.5431 0.7298
vn -0.1421 0.9896 0.0201
vn 0.4724 0.1474 -0.8689
vn 0.3219 -0.9458 -0.0427
vn -0.2778 0.9392 -0.2019
vn 0.0295 -0.2479 0.9683
vn 0.0705 -0.1435 -0.9871
vn -0.2188 -0.0622 -0.9738
vn 0.4967 -0.8679 -0.0063
vn -0.4047 0.9142 0.0188
vn 0.5547 0.8300 0.0588
vn -0.5676 -0.8224 0.0392
vn -0.1714 0.9732 -0.1536
vn 0.2119 -0.9653 0.1525
vn -0.8889 -0.2361 0.3926
vn 0.6117 -0.7054 0.3581
vn -0.5269 0.0202 0.8497
vn -0.5092 0.1224 -0.8519
vn -0.7014 0.2933 0.6496
vn -0.8503 0.1194 0.5125
vn -0.1834 0.7771 -0.6021
vn 0.9218 0.1516 -0.3568
vn 0.9457 0.2225 -0.2369
vn 0.1800 -0.8615 0.4747
vn -0.1661 0.8423 -0.5127
vn -0.9858 -0.0950 0.1384
vn 0.8773 0.4252 -0.2226
vn -0.9825 -0.1853 -0.0213
vn 0.1795 -0.7156 0.6750
vn 0.5964 -0.0827 0.7984
vn 0.4141 0.2537 -0.8742
vn -0.6693 -0.0481 -0.7414
vn 0.9729 0.2304 -0.0203
vn -0.0419 0.1001 0.9941
vn -0.8230 0.1150 0.5563
vn 0.4870 0.0660 -0.8709
vn 0.0500 0.8945 -0.4444
vn 0.9169 -0.0162 -0.3987
vn -0.9469 -0.1833 0.2643
vn -0.3554 0.5648 -0.7448
vn 0.9887 -0.0627 -0.1360
vn -0.8947 0.2584 -0.3645
vn 0.8570 0.2559 -0.4473
vn -0.2012 0.0713 -0.9769
vn 0.1064 0.0136 0.9942
vn -0.2380 0.9276 0.2878
vn 0.4668 -0.8126 -0.3490
vn 0.1647 -0.9420 -0.2923
vn 0.9800 -0.0931 0.1759
vn -0.9558 -0.1776 -0.2344
vn -0.2364 0.9197 0.3134
vn 0.5473 0.2561 0.7968
vn 0.9356 0.1745 0.3068
vn 0.0658 0.0294 -0.9974
vn 0.6496 -0.7514 -0.1158
vn -0.8242 -0.4712 -0.3140
vn -0.5678 0.3709 -0.7349
vn -0.7183 -0.0261 -0.6952
vn -0.2650 -0.9636 -0.0352
vn -0.0336 -0.6810 0.7315
vn -0.6247 -0.0634 -0.7783
vn -0.0277 -0.0019 -0.9996
vn 0.0799 0.9966 0.0187
vn 0.9042 0.3210 0.2817
vn -0.5813 -0.8074 -0.1011
vn 0.0918 -0.1526 0.9840
vn -0.2529 0.2253 0.9409
vn -0.9690 -0.1454 -0.1997
vn 0.4742 -0.4047 -0.7818
vn 0.1912 0.3645 -0.9114
vn -0.4888 -0.5214 0.6995
vn -0.4033 0.7189 0.5662
vn 0.8300 0.4723 0.2965
vn 0.7268 -0.2652 0.6336
vn 0.3800 -0.6893 -0.6168
vn -0.7970 0.2442 -0.5524
vn -0.6689 0.2009 -0.7156
vn 0.6927 0.0761 0.7172
vn -0.9462 -0.1840 -0.2663
vn 0.9717 0.1448 0.1869
vn -0.6212 0.6095 0.4926
vn 0.7573 -0.5011 -0.4187
vn -0.6536 0.3540 0.6689
vn -0.0640 -0.3132 0.9475
vn 0.8610 -0.1125 0.4960
vn 0.8832 -0.1597 -0.4409
vn -0.6399 0.7501 0.1670
vn 0.9103 -0.0144 -0.4138
vn -0.8468 0.4713 -0.2467
vn -0.1505 -0.0645 -0.9865
vn 0.6705 -0.7294 -0.1356
vn 0.2553 0.0007 0.9668
vn 0.9052 0.3961 0.1539
vn -0.9010 -0.4090 -0.1447
vn -0.1200 -0.0398 0.9920
vn 0.9836 -0.1252 0.1298
vn 0.1138 0.0030 -0.9935
vn -0.1002 0.1420 0.9848
vn -0.9052 0.4071 -0.1219
vn 0.1605 0.1414 -0.9768
vn -0.7468 -0.6526 -0.1281
vn 0.7413 0.6490 0.1711
vn 0.0363 -0.0140 -0.9992
vn -0.1463 0.1374 0.9797
vn 0.1229 -0.1258 -0.9844
vn 0.0658 0.0497 0.9966
vn -0.9666 -0.1873 -0.1752
vn 0.9711 0.2070 0.1186
vn -0.9685 -0.0772 -0.2367
vn -0.2588 0.2184 0.9409
vn 0.8555 0.4761 0.2036
vn -0.8992 -0.4366 -0.0299
vn 0.1820 -0.2072 -0.9612
vn 0.1509 0.2973 0.9428
vn 0.9591 -0.0398 -0.2802
vn 0.1596 -0.2680 -0.9501
vn -0.9348 0.2079 -0.2881
vn 0.1046 0.2952 0.9497
vn 0.3776 0.3183 -0.8695
vn 0.3751 -0.3691 0.8503
vn -0.0737 -0.9579 0.2775
vn 0.1325 0.9449 -0.2993
vn 0.8876 0.0983 0.4499
vn -0.8890 0.0332 -0.4567
vn -0.1242 -0.8670 0.4825
vn -0.2495 -0.5585 0.7911
vn 0.9441 0.1181 0.3078
vn -0.0442 0.7572 -0.6517
vn 0.3225 0.5184 -0.7920
vn 0.9857 -0.0778 0.1494
vn -0.9649 0.1524 -0.2140
vn -0.8720 0.0253 -0.4889
vn 0.8629 0.0275 0.5046
vn -0.3509 -0.7850 0.5105
vn -0.3351 -0.0910 0.9378
vn 0.1074 0.7293 -0.6757
vn -0.8742 0.0108 -0.4855
vn -0.5706 -0.8206 -0.0330
vn -0.9967 -0.0809 -0.0110
vn -0.0026 -0.0178 -0.9998
vn 0.5973 0.8019 0.0113
vn 0.0387 0.0032 0.9992
vn -0.9883 0.1516 0.0152
vn 0.0118 0.0363 0.9993
vn 0.9953 -0.0958 0.0110
vn -0.9997 -0.0056 0.0245
vn -0.1356 0.0278 -0.9904
vn -0.0887 -0.3903 -0.9164
vn 0.9937 0.1115 0.0087
vn 0.1085 0.2503 0.9621
vn -0.9695 -0.2289 0.0873
vn -0.1188 0.9929 0.0014
vn 0.9878 0.1397 -0.0689
vn -0.2621 -0.9624 0.0713
vn -0.3805 0.0085 0.9247
vn -0.1892 0.9460 -0.2631
vn -0.9370 0.2142 0.2761
vn 0.8401 0.2981 -0.4531
vn -0.2877 -0.6555 0.6983
vn -0.2714 0.7072 -0.6528
vn 0.2769 -0.6655 0.6931
vn 0.8537 -0.4946 -0.1630
vn -0.9621 0.1248 -0.2426
vn 0.3395 0.0205 -0.9404
vn 0.9540 -0.0741 0.2905
vn -0.3426 -0.3572 0.8689
vn 0.9169 0.0892 0.3890
vn 0.6311 0.4056 -0.6612
vn 0.1539 -0.9881 -0.0007
vn -0.9069 -0.0266 -0.4206
vn 0.4805 0.6038 -0.6360
vn 0.9691 0.2464 0.0085
vn -0.4067 -0.3897 0.8263
vn 0.0260 0.0209 0.9994
vn 0.4359 0.3771 -0.8172
vn -0.1732 0.9827 0.0648
vn -0.1591 0.0693 0.9848
vn -0.0094 0.4248 -0.9053
vn 0.3359 -0.9354 0.1105
vn -0.3566 0.9333 0.0427
vn -0.4120 0.9112 -0.0051
vn 0.2175 0.1201 0.9686
vn 0.4179 -0.8794 -0.2281
vn -0.1531 -0.1452 -0.9775
vn 0.5553 0.8300 0.0531
vn 0.3147 -0.6009 0.7347
vn -0.8834 0.0545 0.4654
vn -0.2957 0.6326 -0.7158
vn 0.9026 -0.0089 -0.4303
vn -0.9308 -0.2894 0.2232
vn 0.1729 -0.9726 0.1553
vn 0.9292 0.3035 -0.2109
vn -0.1920 0.9696 -0.1518
vn -0.3567 0.7872 -0.5030
vn 0.1408 -0.8895 0.4348
vn -0.9389 0.0270 0.3430
vn 0.9150 0.0763 -0.3961
vn 0.5810 -0.1157 0.8056
vn 0.0021 -0.1836 0.9830
vn -0.7823 0.3007 0.5456
vn 0.7198 -0.2548 -0.6457
vn -0.3104 0.0675 -0.9482
vn 0.2085 -0.7691 0.6042
vn 0.5070 -0.5368 0.6744
vn 0.9151 0.0187 -0.4027
vn -0.3717 0.7014 -0.6081
vn -0.9510 -0.1054 0.2907
vn 0.2060 -0.7273 0.6547
vn 0.9525 0.0432 -0.3013
vn -0.1910 0.7759 -0.6012
vn -0.1599 0.8424 -0.5146
vn -0.9619 -0.1808 0.2051
vn 0.9881 0.0860 -0.1273
vn 0.1062 -0.8627 0.4945
vn -0.9293 0.0791 0.3608
vn -0.2136 0.7704 -0.6007
vn 0.9447 -0.0470 -0.3246
vn -0.3107 0.6760 -0.6682
vn -0.9398 -0.3161 0.1299
vn 0.1098 -0.9071 0.4063
vn 0.1915 -0.7117 0.6759
vn 0.9624 0.2702 -0.0283
vn 0.9524 0.2737 -0.1344
vn -0.9958 -0.0841 -0.0373
vn -0.4539 -0.0317 0.8905
vn 0.1770 0.1850 -0.9667
vn -0.9151 0.1964 0.3522
vn 0.3037 -0.5330 0.7897
vn 0.9141 0.0035 -0.4055
vn -0.1342 0.9122 -0.3872
vn 0.9490 0.2104 -0.2349
vn -0.2086 0.5612 -0.8010
vn 0.3217 -0.4100 0.8535
vn -0.9807 0.1749 -0.0875
vn -0.4344 0.5434 -0.7183
vn -0.2714 0.2130 -0.9386
vn 0.8934 -0.2315 0.3850
vn -0.8865 -0.2003 0.4172
vn -0.9007 -0.4341 0.0171
vn 0.8179 0.5267 0.2316
g DeadTree_Plane.004_TreeBody
usemtl TreeBody
s off
f 7//1 8//1 33//1
f 13//2 12//2 15//2
f 76//3 77//3 35//3
f 14//4 9//4 11//4
f 19//5 18//5 163//5
f 44//6 74//6 45//6
f 50//7 20//7 19//7
f 10//8 8//8 12//8
f 11//9 7//9 140//9
f 106//10 105//10 23//10
f 128//11 86//11 125//11
f 51//12 208//12 163//12
f 163//12 207//12 19//12
f 19//13 164//13 50//13
f 143//12 204//12 93//12
f 93//12 205//12 94//12
f 143//14 93//14 141//14
f 94//12 206//12 95//12
f 95//15 96//15 143//15
f 42//16 34//16 43//16
f 52//17 165//17 16//17
f 37//18 36//18 187//18
f 144//19 95//19 143//19
f 109//20 21//20 108//20
f 87//21 125//21 86//21
f 139//22 38//22 37//22
f 9//23 14//23 20//23
f 18//24 17//24 15//24
f 20//25 17//25 19//25
f 23//26 21//26 22//26
f 26//27 109//27 106//27
f 24//28 22//28 109//28
f 26//29 23//29 27//29
f 25//30 27//30 22//30
f 25//31 28//31 30//31
f 31//32 29//32 25//32
f 2//33 30//33 29//33
f 31//34 30//34 2//34
f 32//35 2//35 31//35
f 34//36 42//36 33//36
f 77//37 34//37 36//37
f 38//38 33//38 35//38
f 45//39 49//39 39//39
f 45//40 41//40 44//40
f 57//41 50//41 51//41
f 165//42 52//42 55//42
f 57//43 165//43 56//43
f 54//44 55//44 53//44
f 54//45 57//45 59//45
f 58//46 60//46 54//46
f 63//47 58//47 59//47
f 61//48 60//48 64//48
f 63//49 61//49 65//49
f 62//50 64//50 58//50
f 62//51 63//51 69//51
f 69//52 65//52 68//52
f 72//53 69//53 68//53
f 70//54 72//54 71//54
f 76//55 74//55 78//55
f 80//56 75//56 77//56
f 83//57 78//57 81//57
f 79//58 80//58 84//58
f 3//59 83//59 81//59
f 82//60 84//60 5//60
f 86//61 128//61 85//61
f 90//62 88//62 87//62
f 91//63 85//63 88//63
f 92//64 91//64 90//64
f 101//65 98//65 102//65
f 103//66 104//66 101//66
f 110//67 105//67 106//67
f 107//68 108//68 105//68
f 110//69 109//69 111//69
f 114//70 107//70 110//70
f 113//71 107//71 112//71
f 116//72 114//72 111//72
f 115//73 116//73 113//73
f 112//74 114//74 118//74
f 117//75 116//75 115//75
f 117//76 118//76 116//76
f 123//77 120//77 125//77
f 124//78 123//78 87//78
f 126//79 122//79 124//79
f 127//80 125//80 122//80
f 88//81 128//81 130//81
f 133//82 129//82 88//82
f 131//83 132//83 129//83
f 135//84 133//84 130//84
f 136//85 135//85 132//85
f 131//86 133//86 134//86
f 131//87 134//87 137//87
f 136//88 131//88 137//88
f 138//89 137//89 135//89
f 188//90 140//90 144//90
f 38//91 139//91 141//91
f 148//92 147//92 151//92
f 149//93 150//93 145//93
f 151//94 150//94 154//94
f 153//95 154//95 149//95
f 156//96 155//96 154//96
f 161//97 157//97 155//97
f 159//98 161//98 156//98
f 161//99 159//99 160//99
f 169//100 167//100 164//100
f 168//101 166//101 167//101
f 174//102 166//102 168//102
f 170//103 171//103 166//103
f 174//104 169//104 173//104
f 173//105 171//105 172//105
f 184//106 175//106 177//106
f 181//107 178//107 182//107
f 179//108 182//108 175//108
f 182//109 179//109 180//109
f 183//110 184//110 181//110
f 185//111 184//111 183//111
f 180//112 184//112 6//112
f 6//113 183//113 180//113
f 6//114 185//114 183//114
f 186//115 6//115 185//115
f 194//116 190//116 188//116
f 189//117 190//117 192//117
f 194//118 191//118 196//118
f 198//119 195//119 194//119
f 199//120 193//120 195//120
f 198//121 196//121 201//121
f 197//122 199//122 203//122
f 203//123 200//123 202//123
f 202//124 201//124 197//124
f 11//125 10//125 13//125 14//125
f 15//126 12//126 9//126
f 7//127 9//127 12//127 8//127
f 13//128 10//128 12//128
f 11//129 9//129 7//129
f 140//130 190//130 10//130 11//130
f 77//131 73//131 43//131 34//131
f 10//132 190//132 8//132
f 45//133 35//133 42//133
f 33//134 8//134 187//134 36//134
f 51//135 167//135 208//135
f 163//12 208//12 207//12
f 19//12 207//12 164//12
f 143//136 96//136 204//136
f 93//12 204//12 205//12
f 45//137 74//137 76//137 35//137
f 48//138 1//138 46//138 47//138
f 94//12 205//12 206//12
f 95//12 206//12 96//12
f 73//139 74//139 44//139 43//139
f 38//140 140//140 7//140 33//140
f 144//141 38//141 94//141 95//141
f 190//142 140//142 188//142
f 190//143 187//143 8//143
f 141//144 93//144 94//144 38//144
f 51//145 50//145 164//145 167//145
f 188//146 139//146 37//146
f 20//147 50//147 52//147 16//147
f 163//148 18//148 16//148 165//148
f 88//149 126//149 87//149
f 128//150 125//150 127//150
f 13//151 17//151 20//151 14//151
f 51//152 163//152 165//152
f 15//153 17//153 13//153
f 15//154 9//154 16//154 18//154
f 22//155 24//155 28//155 25//155
f 16//156 9//156 20//156
f 18//157 19//157 17//157
f 109//158 22//158 21//158
f 26//159 106//159 23//159
f 26//160 24//160 109//160
f 27//161 23//161 22//161
f 26//162 28//162 24//162
f 28//163 27//163 29//163 30//163
f 27//164 28//164 26//164
f 25//165 29//165 27//165
f 35//166 77//166 37//166 38//166
f 31//167 2//167 29//167
f 31//168 25//168 30//168
f 35//169 33//169 42//169
f 36//170 34//170 33//170
f 37//171 77//171 36//171
f 49//172 42//172 43//172 40//172
f 45//173 39//173 41//173
f 41//174 40//174 43//174 44//174
f 1//175 49//175 40//175 46//175
f 42//176 49//176 45//176
f 46//177 40//177 41//177 47//177
f 48//178 47//178 41//178 39//178
f 48//179 39//179 49//179 1//179
f 52//180 50//180 53//180 55//180
f 57//181 51//181 165//181
f 56//182 55//182 60//182 61//182
f 57//183 53//183 50//183
f 56//184 165//184 55//184
f 57//185 54//185 53//185
f 60//186 55//186 54//186
f 57//187 56//187 61//187 59//187
f 64//188 62//188 66//188 67//188
f 59//189 58//189 54//189
f 63//190 59//190 61//190
f 58//191 64//191 60//191
f 65//192 61//192 64//192
f 63//193 62//193 58//193
f 69//194 63//194 65//194
f 65//195 64//195 67//195 68//195
f 66//196 70//196 71//196 67//196
f 66//197 62//197 69//197
f 68//198 67//198 71//198 72//198
f 69//199 72//199 70//199 66//199
f 74//200 73//200 75//200 78//200
f 76//201 83//201 80//201 77//201
f 77//202 75//202 73//202
f 83//203 76//203 78//203
f 78//204 75//204 79//204 81//204
f 79//205 82//205 3//205 81//205
f 80//206 79//206 75//206
f 83//207 84//207 80//207
f 84//208 83//208 4//208 5//208
f 82//209 79//209 84//209
f 3//210 4//210 83//210
f 86//211 89//211 90//211 87//211
f 88//212 85//212 128//212
f 89//213 86//213 85//213
f 85//214 92//214 89//214
f 90//215 91//215 88//215
f 89//216 92//216 90//216
f 204//217 97//217 98//217 205//217
f 91//218 92//218 85//218
f 206//219 205//219 98//219 101//219
f 206//220 101//220 99//220 96//220
f 96//221 99//221 97//221 204//221
f 98//222 97//222 100//222 102//222
f 97//223 99//223 104//223 100//223
f 104//224 99//224 101//224
f 102//225 100//225 108//225 21//225
f 102//226 103//226 101//226
f 102//227 21//227 23//227 103//227
f 103//228 23//228 105//228 104//228
f 100//229 104//229 105//229 108//229
f 108//230 113//230 111//230 109//230
f 110//231 106//231 109//231
f 110//232 107//232 105//232
f 107//233 113//233 108//233
f 82//234 119//234 120//234 3//234
f 114//235 110//235 111//235
f 113//236 116//236 111//236
f 112//237 107//237 114//237
f 115//238 113//238 112//238
f 116//239 118//239 114//239
f 117//240 115//240 112//240
f 117//241 112//241 118//241
f 4//242 3//242 120//242 123//242
f 5//243 4//243 123//243 121//243
f 5//244 121//244 119//244 82//244
f 120//245 119//245 122//245 125//245
f 119//246 121//246 124//246 122//246
f 124//247 121//247 123//247
f 127//248 126//248 129//248 132//248
f 87//249 123//249 125//249
f 87//250 126//250 124//250
f 126//251 127//251 122//251
f 127//252 132//252 130//252 128//252
f 139//253 188//253 142//253 141//253
f 88//254 129//254 126//254
f 133//255 88//255 130//255
f 135//256 130//256 132//256
f 133//257 131//257 129//257
f 136//258 132//258 131//258
f 135//259 134//259 133//259
f 135//260 137//260 134//260
f 136//261 138//261 135//261
f 138//262 136//262 137//262
f 144//263 140//263 38//263
f 144//264 142//264 188//264
f 142//265 145//265 146//265 141//265
f 143//266 141//266 146//266 147//266
f 144//267 143//267 147//267 148//267
f 144//268 148//268 145//268 142//268
f 146//269 150//269 151//269 147//269
f 145//270 150//270 146//270
f 145//271 148//271 152//271 149//271
f 152//272 148//272 151//272
f 151//273 155//273 157//273 152//273
f 149//274 154//274 150//274
f 155//275 151//275 154//275
f 149//276 152//276 157//276 153//276
f 153//277 158//277 159//277 156//277
f 156//278 154//278 153//278
f 156//279 161//279 155//279
f 157//280 162//280 158//280 153//280
f 161//281 162//281 157//281
f 208//282 166//282 171//282 207//282
f 158//283 160//283 159//283
f 162//284 160//284 158//284
f 160//285 162//285 161//285
f 164//286 207//286 171//286 169//286
f 170//287 175//287 178//287 172//287
f 167//288 166//288 208//288
f 169//289 168//289 167//289
f 174//290 168//290 169//290
f 173//291 169//291 171//291
f 174//292 170//292 166//292
f 170//293 172//293 171//293
f 173//294 172//294 178//294 176//294
f 174//295 173//295 176//295 177//295
f 174//296 177//296 175//296 170//296
f 177//297 176//297 181//297 184//297
f 181//298 176//298 178//298
f 187//299 189//299 191//299 37//299
f 182//300 178//300 175//300
f 184//301 179//301 175//301
f 180//302 179//302 184//302
f 182//303 183//303 181//303
f 183//304 182//304 180//304
f 185//305 6//305 184//305
f 188//306 37//306 191//306 194//306
f 189//307 193//307 196//307 191//307
f 189//308 187//308 190//308
f 192//309 190//309 194//309
f 189//310 192//310 195//310 193//310
f 194//311 195//311 192//311
f 193//312 197//312 201//312 196//312
f 198//313 194//313 196//313
f 198//314 199//314 195//314
f 199//315 198//315 200//315 203//315
f 199//316 197//316 193//316
f 201//317 200//317 198//317
f 201//318 202//318 200//318
f 202//319 197//319 203//319
