# Blender v3.0.0 OBJ File: 'GraphicsProject.blend'
# www.blender.org
mtllib Log2.mtl
o Log.002_Circle.003
v -0.777020 1.017833 3.727122
v -0.724524 0.382835 3.717997
v -0.245027 -0.028499 3.634638
v 0.380588 0.024784 3.525877
v -0.348905 1.555621 2.550214
v -0.724196 1.111580 2.550214
v -0.675581 0.532225 2.550214
v -0.231540 0.156935 2.550214
v 0.347815 0.205549 2.550214
v 0.723105 0.649590 2.550214
v 0.629651 1.244373 2.491304
v 0.248251 1.477455 2.481617
v -0.416166 1.308806 0.722095
v -0.803959 0.849972 0.722095
v -0.753725 0.251316 0.722095
v -0.294891 -0.136478 0.722095
v 0.303766 -0.086243 0.722095
v 0.691559 0.372591 0.722095
v 0.641325 0.971247 0.722095
v 0.182490 1.359040 0.722095
v -0.511913 1.446519 -1.460780
v -0.919899 0.963793 -1.460780
v -0.867049 0.333965 -1.460780
v -0.384324 -0.074020 -1.460780
v 0.245504 -0.021170 -1.460780
v 0.653489 0.461555 -1.460780
v 0.600640 1.091383 -1.460780
v 0.117914 1.499368 -1.460780
v -0.408757 1.647789 -2.231957
v -0.830051 1.149317 -2.231957
v -0.775478 0.498944 -2.231957
v -0.277006 0.077650 -2.231957
v 0.373367 0.132224 -2.231957
v 0.794661 0.630696 -2.231957
v 0.740088 1.281069 -2.231957
v 0.241615 1.702363 -2.231957
v -0.301588 1.551316 -3.954914
v -0.762434 1.006045 -3.954914
v -0.705891 0.325884 -3.954914
v -0.157467 -0.166233 -3.954914
v 0.553965 -0.106536 -3.954914
v 1.014811 0.438735 -3.954914
v 0.955114 1.150166 -3.954914
v 0.409844 1.611013 -3.954914
v -0.566253 0.950272 3.687829
v -0.528087 0.486843 3.684425
v -0.177700 0.185815 3.626394
v 0.279884 0.224572 3.547715
v -0.251950 1.375047 2.557731
v -0.529203 1.049866 2.565449
v -0.492666 0.623796 2.565061
v -0.165138 0.350882 2.556423
v 0.257055 0.389349 2.543535
v 0.528509 0.712403 2.534378
v 0.571900 1.197596 2.483772
v 0.275540 1.436103 2.486229
v -0.325197 1.117482 0.716345
v -0.602260 0.784964 0.720264
v -0.568297 0.353879 0.725426
v -0.238968 0.067848 0.728194
v 0.200970 0.099014 0.727166
v 0.489509 0.436515 0.723725
v 0.450511 0.879064 0.719546
v 0.109738 1.160078 0.716319
v -0.407340 1.249847 -1.470646
v -0.708522 0.894684 -1.476764
v -0.667065 0.431572 -1.474648
v -0.311059 0.136530 -1.464372
v 0.146122 0.178188 -1.451172
v 0.441211 0.527619 -1.443870
v 0.405372 0.984594 -1.447449
v 0.055574 1.285306 -1.458936
v -0.299111 1.445449 -2.231957
v -0.610075 1.083475 -2.231957
v -0.572137 0.605549 -2.231957
v -0.205032 0.296181 -2.231957
v 0.272003 0.338878 -2.231957
v 0.577301 0.704768 -2.231957
v 0.535472 1.177088 -2.231957
v 0.173950 1.482441 -2.231957
v -0.194896 1.323185 -3.954914
v -0.526256 0.923119 -3.954914
v -0.484950 0.439903 -3.954914
v -0.088220 0.074312 -3.954914
v 0.429841 0.112599 -3.954914
v 0.774593 0.508471 -3.954914
v 0.734173 1.036147 -3.954914
v 0.327505 1.374818 -3.954914
v -0.712725 0.875486 -0.225768
v -0.781783 0.904921 -0.637439
v -0.850841 0.934357 -1.049109
v -0.797991 0.304530 -1.049109
v -0.728934 0.275094 -0.637439
v -0.659876 0.245658 -0.225768
v 0.807813 1.003075 -0.225768
v 0.738755 1.032511 -0.637439
v 0.669698 1.061947 -1.049109
v 0.034405 1.404214 -1.025079
v 0.194202 1.430106 -0.663254
v 0.115332 1.341998 -0.347688
v 0.452677 -0.109478 -0.225768
v 0.383620 -0.080042 -0.637439
v 0.314562 -0.050606 -1.049109
v 0.722547 0.432120 -1.049109
v 0.791605 0.402684 -0.637439
v 0.860662 0.373248 -0.225768
v -0.315266 -0.103456 -1.049109
v -0.246208 -0.132891 -0.637439
v -0.177150 -0.162327 -0.225768
v -0.401700 1.307264 -0.295061
v -0.564990 1.367069 -0.663239
v -0.471745 1.345538 -0.977226
v -0.500731 0.806914 -0.231209
v -0.569995 0.836170 -0.646394
v -0.639259 0.865427 -1.061579
v -0.599233 0.404710 -1.058634
v -0.531400 0.377849 -0.642621
v -0.463568 0.350987 -0.226607
v 0.608434 0.903641 -0.224447
v 0.540746 0.930625 -0.632114
v 0.473059 0.957610 -1.039781
v 0.117289 1.258252 -1.040234
v 0.362103 1.167839 -0.639258
v 0.203032 1.218485 -0.296205
v 0.346721 0.086540 -0.219365
v 0.279855 0.117089 -0.629968
v 0.212989 0.147639 -1.040570
v 0.510196 0.498480 -1.035998
v 0.579181 0.469342 -0.628127
v 0.648166 0.440203 -0.220255
v -0.245608 0.108198 -1.050199
v -0.180158 0.079865 -0.636027
v -0.114708 0.051533 -0.221854
v -0.198551 1.166224 -0.254404
v -0.434215 1.100081 -0.649323
v -0.296187 1.233372 -0.993984
v -0.025363 1.361459 -0.922065
v 0.088207 1.382910 -0.664258
v 0.032282 1.317142 -0.439559
v -0.336000 1.292401 -0.402073
v -0.452564 1.338009 -0.664247
v -0.385892 1.319664 -0.887978
v -0.225422 1.253036 -0.892275
v 0.069097 1.270758 -0.925219
v 0.243478 1.206357 -0.639604
v 0.130172 1.242433 -0.395247
v -0.155875 1.205207 -0.365472
v -0.323739 1.158093 -0.646773
v 0.015146 1.696052 -0.948488
v 0.134798 1.718652 -0.676874
v 0.075878 1.649362 -0.440141
v -0.312127 1.623296 -0.400648
v -0.434935 1.671346 -0.676863
v -0.364692 1.652020 -0.912576
v -0.522139 1.362946 -2.453691
v -0.393809 1.383284 -3.954914
v -0.391665 1.444737 -3.954914
v -0.699014 1.081084 -3.954914
v -0.578995 1.102449 -3.954914
v -0.371110 1.252687 -2.453691
v -0.264615 1.239010 -3.954914
v -0.289884 1.239927 -3.954914
v -0.461224 1.033553 -3.954914
v -0.456709 1.007086 -3.954914
v 0.560045 0.623885 2.092634
v 0.285996 0.299642 2.099849
v 0.379663 0.117348 2.102665
v 0.754953 0.561389 2.102665
v -0.643733 0.444024 2.102665
v -0.199692 0.068734 2.102665
v -0.317057 1.467419 2.102665
v -0.692347 1.023378 2.102665
v -0.461972 0.538157 2.113638
v -0.137384 0.263944 2.108773
v -0.223074 1.285318 2.105822
v -0.497287 0.961265 2.112232
v 0.073019 1.701828 -1.053296
v 0.056500 1.725635 -1.019765
v 0.207804 1.751159 -0.676183
v 0.240373 1.728919 -0.674352
v 0.133302 1.666549 -0.376617
v 0.157766 1.636607 -0.343857
v -0.383722 1.600242 -0.288740
v -0.357549 1.633571 -0.326666
v -0.512373 1.691363 -0.676168
v -0.554735 1.662902 -0.674335
v -0.424103 1.669924 -0.974337
v -0.457078 1.640369 -1.003179
v 0.686088 0.691937 3.483216
v 0.310798 0.247896 3.483216
v 0.491493 0.754750 3.467380
v 0.220038 0.431696 3.476537
v 0.535812 1.302169 3.254964
v 0.639422 0.708204 3.302080
v 0.448509 1.306154 3.234217
v 0.444827 0.771017 3.286244
v -0.738893 1.127658 2.910023
v -0.543901 1.065945 2.925257
v -0.363603 1.571699 2.910023
v -0.266648 1.391125 2.917540
vt 0.000000 0.000000
vt 0.000000 0.000000
vt 0.000000 0.000000
vt 0.000000 0.000000
vt 0.000000 0.000000
vt 0.000000 0.000000
vt 0.000000 0.000000
vt 0.000000 0.000000
vt 0.000000 0.000000
vt 0.000000 0.000000
vt 0.000000 0.000000
vt 0.000000 0.000000
vt 0.000000 0.000000
vt 0.000000 0.000000
vt 0.000000 0.000000
vt 0.000000 0.000000
vt 0.000000 0.000000
vt 0.000000 0.000000
vt 0.000000 0.000000
vt 0.000000 0.000000
vt 0.000000 0.000000
vt 0.000000 0.000000
vt 0.000000 0.000000
vt 0.000000 0.000000
vt 0.000000 0.000000
vt 0.000000 0.000000
vt 0.000000 0.000000
vt 0.000000 0.000000
vt 0.000000 0.000000
vt 0.000000 0.000000
vt 0.000000 0.000000
vt 0.000000 0.000000
vt 0.000000 0.000000
vt 0.000000 0.000000
vt 0.000000 0.000000
vt 0.000000 0.000000
vt 0.000000 0.000000
vt 0.000000 0.000000
vt 0.000000 0.000000
vt 0.000000 0.000000
vt 0.000000 0.000000
vt 0.000000 0.000000
vt 0.000000 0.000000
vt 0.000000 0.000000
vt 0.000000 0.000000
vt 0.000000 0.000000
vt 0.000000 0.000000
vt 0.000000 0.000000
vt 0.000000 0.000000
vt 0.000000 0.000000
vt 0.000000 0.000000
vt 0.000000 0.000000
vt 0.000000 0.000000
vt 0.000000 0.000000
vt 0.000000 0.000000
vt 0.000000 0.000000
vt 0.000000 0.000000
vt 0.000000 0.000000
vt 0.000000 0.000000
vt 0.000000 0.000000
vt 0.000000 0.000000
vt 0.000000 0.000000
vt 0.000000 0.000000
vt 0.000000 0.000000
vt 0.000000 0.000000
vt 0.000000 0.000000
vt 0.000000 0.000000
vt 0.000000 0.000000
vt 0.000000 0.000000
vt 0.000000 0.000000
vt 0.000000 0.000000
vt 0.000000 0.000000
vt 0.000000 0.000000
vt 0.000000 0.000000
vt 0.000000 0.000000
vt 0.000000 0.000000
vt 0.000000 0.000000
vt 0.000000 0.000000
vt 0.000000 0.000000
vt 0.000000 0.000000
vt 0.000000 0.000000
vt 0.000000 0.000000
vt 0.000000 0.000000
vt 0.000000 0.000000
vt 0.000000 0.000000
vt 0.000000 0.000000
vt 0.000000 0.000000
vt 0.000000 0.000000
vt 0.000000 0.000000
vt 0.000000 0.000000
vt 0.000000 0.000000
vt 0.000000 0.000000
vt 0.000000 0.000000
vt 0.000000 0.000000
vt 0.000000 0.000000
vt 0.000000 0.000000
vt 0.000000 0.000000
vt 0.000000 0.000000
vt 0.000000 0.000000
vt 0.000000 0.000000
vt 0.000000 0.000000
vt 0.000000 0.000000
vt 0.000000 0.000000
vt 0.000000 0.000000
vt 0.000000 0.000000
vt 0.000000 0.000000
vt 0.000000 0.000000
vt 0.000000 0.000000
vt 0.000000 0.000000
vt 0.000000 0.000000
vt 0.000000 0.000000
vt 0.000000 0.000000
vt 0.000000 0.000000
vt 0.000000 0.000000
vt 0.000000 0.000000
vt 0.000000 0.000000
vt 0.000000 0.000000
vt 0.000000 0.000000
vt 0.000000 0.000000
vt 0.000000 0.000000
vt 0.000000 0.000000
vt 0.000000 0.000000
vt 0.000000 0.000000
vt 0.000000 0.000000
vt 0.000000 0.000000
vt 0.000000 0.000000
vt 0.000000 0.000000
vt 0.000000 0.000000
vt 0.000000 0.000000
vt 0.000000 0.000000
vt 0.000000 0.000000
vt 0.000000 0.000000
vt 0.000000 0.000000
vt 0.000000 0.000000
vt 0.000000 0.000000
vt 0.000000 0.000000
vt 0.000000 0.000000
vt 0.000000 0.000000
vt 0.000000 0.000000
vt 0.000000 0.000000
vt 0.000000 0.000000
vt 0.000000 0.000000
vt 0.000000 0.000000
vt 0.000000 0.000000
vt 0.000000 0.000000
vt 0.000000 0.000000
vt 0.000000 0.000000
vt 0.000000 0.000000
vt 0.000000 0.000000
vt 0.000000 0.000000
vt 0.000000 0.000000
vt 0.000000 0.000000
vt 0.000000 0.000000
vt 0.000000 0.000000
vt 0.000000 0.000000
vt 0.000000 0.000000
vt 0.000000 0.000000
vt 0.000000 0.000000
vt 0.000000 0.000000
vt 0.000000 0.000000
vt 0.000000 0.000000
vt 0.000000 0.000000
vt 0.000000 0.000000
vt 0.000000 0.000000
vt 0.000000 0.000000
vt 0.000000 0.000000
vt 0.000000 0.000000
vt 0.000000 0.000000
vt 0.000000 0.000000
vt 0.000000 0.000000
vt 0.000000 0.000000
vt 0.000000 0.000000
vt 0.000000 0.000000
vt 0.000000 0.000000
vt 0.000000 0.000000
vt 0.000000 0.000000
vt 0.000000 0.000000
vt 0.000000 0.000000
vt 0.000000 0.000000
vt 0.000000 0.000000
vt 0.000000 0.000000
vt 0.000000 0.000000
vt 0.000000 0.000000
vt 0.000000 0.000000
vt 0.000000 0.000000
vt 0.000000 0.000000
vt 0.000000 0.000000
vt 0.000000 0.000000
vt 0.000000 0.000000
vt 0.000000 0.000000
vt 0.000000 0.000000
vt 0.000000 0.000000
vt 0.000000 0.000000
vt 0.000000 0.000000
vt 0.000000 0.000000
vt 0.000000 0.000000
vt 0.000000 0.000000
vt 0.000000 0.000000
vt 0.000000 0.000000
vt 0.000000 0.000000
vn 0.0672 -0.9822 -0.1752
vn -0.9952 -0.0825 -0.0517
vn -0.6497 -0.7491 -0.1294
vn 0.5922 0.7999 -0.0978
vn 0.7627 -0.6446 0.0531
vn -0.6376 -0.7544 0.1561
vn -0.7636 0.6454 -0.0193
vn -0.0234 0.9960 -0.0866
vn 0.9884 0.1468 -0.0378
vn 0.0828 -0.9866 0.1409
vn -0.9924 -0.0833 0.0907
vn -0.9838 -0.0826 0.1591
vn 0.5544 0.8220 0.1303
vn 0.7524 -0.6359 -0.1717
vn -0.6446 -0.7627 0.0536
vn -0.7450 0.6411 0.1843
vn -0.0871 0.9751 0.2039
vn 0.9838 0.0826 -0.1591
vn 0.0833 -0.9929 -0.0850
vn -0.0811 0.9670 0.2415
vn 0.9770 0.0820 0.1968
vn 0.0822 -0.9800 -0.1813
vn -0.9874 -0.0829 -0.1350
vn 0.6175 0.7306 0.2914
vn 0.7638 -0.6455 -0.0018
vn -0.6277 -0.7427 -0.2334
vn -0.6564 -0.7524 0.0550
vn -0.7638 0.6455 0.0019
vn -0.0835 0.9946 -0.0609
vn 0.9896 0.0830 0.1172
vn 0.0827 -0.9859 0.1453
vn -0.9960 -0.0832 -0.0320
vn 0.6453 0.7636 0.0225
vn 0.7530 -0.6364 0.1671
vn 0.9799 0.1715 0.1016
vn 0.0836 -0.9958 0.0375
vn 0.9811 0.0823 0.1751
vn -0.0763 0.9971 -0.0070
vn -0.7876 0.6152 -0.0349
vn -0.8075 0.5086 0.2988
vn -0.8253 0.5643 -0.0214
vn -0.6444 -0.7624 -0.0592
vn 0.7568 -0.6396 0.1346
vn 0.5310 0.8467 0.0323
vn 0.4933 0.8576 0.1453
vn 0.5253 0.8373 -0.1516
vn -0.9917 -0.0832 -0.0977
vn -0.9580 0.0225 -0.2860
vn 0.9689 -0.1422 0.2025
vn -0.9103 0.0470 0.4113
vn -0.0842 -0.0832 -0.9930
vn 0.1031 -0.0278 0.9943
vn -0.8695 0.4895 -0.0663
vn -0.6408 0.7636 -0.0790
vn -0.9950 -0.0835 -0.0544
vn 0.0820 -0.9767 0.1983
vn 0.9865 0.1589 0.0389
vn 0.1066 0.9769 -0.1849
vn -0.7515 0.6351 -0.1786
vn -0.6420 -0.7596 0.1040
vn 0.7515 -0.6351 0.1786
vn 0.9078 -0.1547 -0.3898
vn 0.7624 -0.6444 0.0595
vn -0.7624 0.6443 -0.0599
vn 0.3072 0.9472 0.0917
vn 0.0000 0.0000 -1.0000
vn -0.0701 0.9851 0.1570
vn 0.9957 0.0834 0.0410
vn 0.6484 0.7521 0.1180
vn 0.8807 0.4735 0.0148
vn -0.6219 -0.7624 0.1788
vn -0.7614 0.6465 -0.0483
vn 0.6428 0.7509 -0.1514
vn 0.7658 -0.6427 0.0225
vn 0.1522 -0.9804 0.1248
vn -0.9962 -0.0531 0.0696
vn -0.0781 0.9875 -0.1370
vn 0.9931 0.0799 -0.0858
vn 0.9839 0.0859 -0.1565
vn -0.6483 -0.7596 0.0518
vn -0.7537 0.6345 0.1714
vn 0.6403 0.7664 -0.0518
vn 0.7432 -0.6435 -0.1833
vn 0.0662 -0.9959 -0.0612
vn -0.9842 -0.0771 0.1596
vn -0.0900 0.9923 0.0853
vn 0.0779 -0.9685 -0.2364
vn -0.9792 -0.0826 -0.1852
vn -0.0910 0.9778 0.1887
vn 0.9857 0.0835 0.1461
vn -0.6196 -0.7325 -0.2821
vn -0.7660 0.6428 0.0105
vn 0.6198 0.7456 0.2448
vn -0.7043 -0.7080 -0.0509
vn 0.6615 0.7486 -0.0450
vn 0.6705 -0.7362 0.0923
vn 0.0884 -0.9934 0.0729
vn -0.9910 -0.0815 -0.1059
vn -0.0804 0.9876 -0.1348
vn 0.9958 0.0821 0.0416
vn -0.6424 -0.7663 -0.0104
vn -0.7514 0.6412 -0.1561
vn 0.1759 0.0033 0.9844
vn 0.1632 -0.0057 0.9866
vn 0.1720 -0.0185 0.9849
vn -0.3087 -0.9508 -0.0259
vn -0.0732 0.9970 -0.0255
vn -0.0786 0.9934 0.0835
vn -0.0843 0.9929 0.0844
vn -0.9823 -0.0869 -0.1660
vn -0.9838 -0.0818 0.1593
vn -0.9840 -0.0794 0.1594
vn 0.1105 -0.9930 -0.0414
vn 0.0926 -0.9501 -0.2979
vn 0.4622 -0.8735 -0.1527
vn 0.7663 -0.6389 0.0675
vn 0.7827 -0.5613 -0.2690
vn 0.7985 -0.5994 -0.0560
vn 0.6514 0.7554 0.0708
vn 0.6487 0.7592 -0.0537
vn 0.6445 0.7628 -0.0528
vn -0.7550 0.6437 -0.1246
vn -0.7504 0.6384 0.1711
vn -0.7520 0.6365 0.1712
vn -0.6132 -0.7820 -0.1119
vn -0.6814 -0.7295 -0.0600
vn -0.7003 -0.6934 0.1700
vn 0.9909 0.0806 0.1082
vn 0.9844 0.0801 -0.1569
vn 0.9841 0.0830 -0.1567
vn -0.6382 -0.7188 -0.2758
vn -0.7043 -0.6321 0.3232
vn 0.0921 0.1023 0.9905
vn 0.6034 0.7257 0.3306
vn -0.0412 -0.5024 -0.8637
vn 0.6482 0.6807 -0.3411
vn -0.3088 -0.9511 -0.0028
vn 0.0749 -0.9875 0.1388
vn 0.4633 -0.8766 -0.1297
vn -0.1020 0.0116 -0.9947
vn -0.9103 0.1409 0.3893
vn -0.4169 0.8959 0.1534
vn -0.8963 -0.4432 -0.0154
vn 0.8943 0.4443 0.0524
vn 0.9567 -0.0397 0.2884
vn -0.4188 0.9009 0.1140
vn 0.2650 0.9632 0.0453
vn -0.9706 0.1270 -0.2044
vn 0.2649 0.9642 0.0050
vn -0.0849 0.9785 -0.1880
vn 0.9077 -0.0637 -0.4147
vn -0.0759 0.9358 0.3443
vn 0.0861 0.0681 0.9940
vn 0.5476 0.8217 -0.1581
vn 0.7605 -0.6492 -0.0118
vn -0.9958 0.0347 -0.0847
vn -0.1729 0.9715 -0.1620
vn -0.0363 -0.9993 0.0065
vn 0.9823 0.1675 -0.0834
vn 0.8610 -0.5026 0.0775
vn -0.9930 0.0797 -0.0869
vn -0.0907 0.9758 -0.1991
vn 0.9951 0.0843 0.0526
vn 0.7522 -0.6351 0.1756
vn 0.6379 0.7629 -0.1050
vn -0.7546 0.6314 -0.1786
vn 0.5441 0.7846 -0.2971
vn 0.5091 0.7872 0.3480
vn -0.5052 0.7875 0.3530
vn -0.5451 0.8095 -0.2184
vn 0.0179 0.7448 0.6671
vn -0.1479 0.7704 -0.6201
vn -0.0272 -0.0237 0.9993
vn 0.1395 -0.9695 0.2014
vn -0.0396 0.0453 0.9982
vn -0.7651 0.6412 -0.0595
vn 0.3093 0.9505 -0.0309
vn -0.1103 0.0772 0.9909
vn -0.9897 0.0316 -0.1399
vn -0.2546 0.9566 -0.1416
vn -0.3099 -0.9500 0.0396
vn -0.0408 0.0446 0.9982
vn 0.7603 -0.6468 0.0600
vn -0.3037 -0.9523 0.0301
vn 0.1245 0.1235 0.9845
usemtl Log
s off
f 4/1/1 3/2/1 8/3/1 9/4/1
f 2/5/2 1/6/2 6/7/2 7/8/2
f 3/2/3 2/5/3 7/8/3 8/3/3
f 12/9/4 11/10/4 19/11/4 20/12/4
f 168/13/5 167/14/5 17/15/5 18/16/5
f 170/17/6 169/18/6 15/19/6 16/20/6
f 172/21/7 171/22/7 13/23/7 14/24/7
f 171/22/8 12/9/8 20/12/8 13/23/8
f 11/10/9 168/13/9 18/16/9 19/11/9
f 167/14/10 170/17/10 16/20/10 17/15/10
f 169/18/11 172/21/11 14/24/11 15/19/11
f 92/25/12 91/26/12 22/27/12 23/28/12
f 98/29/13 97/30/13 27/31/13 28/32/13
f 104/33/14 103/34/14 25/35/14 26/36/14
f 107/37/15 92/25/15 23/28/15 24/38/15
f 91/26/16 112/39/16 21/40/16 22/27/16
f 112/39/17 98/29/17 28/32/17 21/40/17
f 97/30/18 104/33/18 26/36/18 27/31/18
f 103/34/19 107/37/19 24/38/19 25/35/19
f 21/40/20 28/32/20 36/41/20 29/42/20
f 27/31/21 26/36/21 34/43/21 35/44/21
f 25/35/22 24/38/22 32/45/22 33/46/22
f 23/28/23 22/27/23 30/47/23 31/48/23
f 28/32/24 27/31/24 35/44/24 36/41/24
f 26/36/25 25/35/25 33/46/25 34/43/25
f 24/38/26 23/28/26 31/48/26 32/45/26
f 32/45/27 31/48/27 39/49/27 40/50/27
f 22/27/28 21/40/28 29/42/28 155/51/28 30/47/28
f 29/42/29 36/41/29 44/52/29 37/53/29
f 35/44/30 34/43/30 42/54/30 43/55/30
f 33/46/31 32/45/31 40/50/31 41/56/31
f 31/48/32 30/47/32 38/57/32 39/49/32
f 36/41/33 35/44/33 43/55/33 44/52/33
f 34/43/34 33/46/34 41/56/34 42/54/34
f 10/58/35 11/10/35 193/59/35 194/60/35
f 17/15/36 16/20/36 109/61/36 101/62/36
f 101/62/19 109/61/19 108/63/19 102/64/19
f 102/64/19 108/63/19 107/37/19 103/34/19
f 19/11/37 18/16/37 106/65/37 95/66/37
f 95/66/18 106/65/18 105/67/18 96/68/18
f 96/68/18 105/67/18 104/33/18 97/30/18
f 13/23/38 20/12/38 100/69/38 110/70/38
f 14/24/39 13/23/39 110/70/39 89/71/39
f 89/71/40 110/70/40 111/72/40 90/73/40
f 90/73/41 111/72/41 112/39/41 91/26/41
f 16/20/42 15/19/42 94/74/42 109/61/42
f 109/61/15 94/74/15 93/75/15 108/63/15
f 108/63/15 93/75/15 92/25/15 107/37/15
f 18/16/43 17/15/43 101/62/43 106/65/43
f 106/65/14 101/62/14 102/64/14 105/67/14
f 105/67/14 102/64/14 103/34/14 104/33/14
f 20/12/44 19/11/44 95/66/44 100/69/44
f 100/69/45 95/66/45 96/68/45 99/76/45
f 99/76/46 96/68/46 97/30/46 98/29/46
f 15/19/47 14/24/47 89/71/47 94/74/47
f 94/74/12 89/71/12 90/73/12 93/75/12
f 93/75/12 90/73/12 91/26/12 92/25/12
f 112/39/48 111/72/48 186/77/48 188/78/48
f 100/69/49 99/76/49 180/79/49 182/80/49
f 111/72/50 110/70/50 183/81/50 186/77/50
f 98/29/51 112/39/51 188/78/51 177/82/51
f 110/70/52 100/69/52 182/80/52 183/81/52
f 155/51/53 29/42/53 37/53/53 157/83/53
f 30/47/54 155/51/54 158/84/54 38/57/54
f 7/8/55 6/7/55 172/21/55 169/18/55
f 9/4/56 8/3/56 170/17/56 167/14/56
f 11/10/57 10/58/57 168/13/57
f 5/85/58 12/9/58 171/22/58
f 6/7/59 5/85/59 171/22/59 172/21/59
f 8/3/60 7/8/60 169/18/60 170/17/60
f 10/58/61 9/4/61 167/14/61 168/13/61
f 99/76/62 98/29/62 177/82/62 180/79/62
f 9/4/63 10/58/63 189/86/63 190/87/63
f 5/85/64 6/7/64 197/88/64 199/89/64
usemtl LogInterior
f 50/90/65 6/7/65 1/6/65 45/91/65
f 38/57/66 158/84/66 159/92/66 163/93/66 164/94/66 82/95/66
f 48/96/67 53/97/67 52/98/67 47/99/67
f 46/100/68 51/101/68 50/90/68 45/91/68
f 47/99/69 52/98/69 51/101/69 46/100/69
f 49/102/70 5/85/70 199/89/70 200/103/70
f 56/104/71 64/105/71 63/106/71 55/107/71
f 165/108/72 62/109/72 61/110/72 166/111/72
f 174/112/73 60/113/73 59/114/73 173/115/73
f 176/116/74 58/117/74 57/118/74 175/119/74
f 175/119/75 57/118/75 64/105/75 56/104/75
f 55/107/76 63/106/76 62/109/76 165/108/76
f 166/111/77 61/110/77 60/113/77 174/112/77
f 173/115/78 59/114/78 58/117/78 176/116/78
f 116/120/79 67/121/79 66/122/79 115/123/79
f 122/124/80 72/125/80 71/126/80 121/127/80
f 128/128/81 70/129/81 69/130/81 127/131/81
f 131/132/82 68/133/82 67/121/82 116/120/82
f 115/123/83 66/122/83 65/134/83 136/135/83
f 136/135/84 65/134/84 72/125/84 122/124/84
f 121/127/85 71/126/85 70/129/85 128/128/85
f 127/131/86 69/130/86 68/133/86 131/132/86
f 65/134/87 73/136/87 80/137/87 72/125/87
f 71/126/88 79/138/88 78/139/88 70/129/88
f 69/130/89 77/140/89 76/141/89 68/133/89
f 67/121/90 75/142/90 74/143/90 66/122/90
f 72/125/91 80/137/91 79/138/91 71/126/91
f 70/129/92 78/139/92 77/140/92 69/130/92
f 68/133/93 76/141/93 75/142/93 67/121/93
f 160/144/94 155/51/94 156/145/94 162/146/94
f 76/141/95 84/147/95 83/148/95 75/142/95
f 74/143/96 82/95/96 164/94/96 160/144/96
f 73/136/97 81/149/97 88/150/97 80/137/97
f 79/138/98 87/151/98 86/152/98 78/139/98
f 77/140/99 85/153/99 84/147/99 76/141/99
f 75/142/100 83/148/100 82/95/100 74/143/100
f 80/137/101 88/150/101 87/151/101 79/138/101
f 78/139/102 86/152/102 85/153/102 77/140/102
f 1/6/103 2/5/103 46/100/103 45/91/103
f 2/5/104 3/2/104 47/99/104 46/100/104
f 3/2/105 4/1/105 48/96/105 47/99/105
f 41/56/66 40/50/66 84/147/66 85/153/66
f 42/54/66 41/56/66 85/153/66 86/152/66
f 122/124/106 123/154/106 145/155/106 144/156/106
f 61/110/107 125/157/107 133/158/107 60/113/107
f 125/157/108 126/159/108 132/160/108 133/158/108
f 126/159/109 127/131/109 131/132/109 132/160/109
f 63/106/110 119/161/110 130/162/110 62/109/110
f 119/161/111 120/163/111 129/164/111 130/162/111
f 120/163/112 121/127/112 128/128/112 129/164/112
f 57/118/113 134/165/113 124/166/113 64/105/113
f 124/166/114 134/165/114 147/167/114 146/168/114
f 135/169/115 136/135/115 143/170/115 148/171/115
f 58/117/116 113/172/116 134/165/116 57/118/116
f 113/172/117 114/173/117 135/169/117 134/165/117
f 114/173/118 115/123/118 136/135/118 135/169/118
f 60/113/119 133/158/119 118/174/119 59/114/119
f 133/158/120 132/160/120 117/175/120 118/174/120
f 132/160/121 131/132/121 116/120/121 117/175/121
f 62/109/122 130/162/122 125/157/122 61/110/122
f 130/162/123 129/164/123 126/159/123 125/157/123
f 129/164/124 128/128/124 127/131/124 126/159/124
f 64/105/125 124/166/125 119/161/125 63/106/125
f 124/166/126 123/154/126 120/163/126 119/161/126
f 123/154/127 122/124/127 121/127/127 120/163/127
f 59/114/128 118/174/128 113/172/128 58/117/128
f 118/174/129 117/175/129 114/173/129 113/172/129
f 117/175/130 116/120/130 115/123/130 114/173/130
f 139/176/131 138/177/131 145/155/131 146/168/131
f 138/177/132 137/178/132 144/156/132 145/155/132
f 143/170/133 144/156/133 137/178/133 142/179/133
f 142/179/134 141/180/134 148/171/134 143/170/134
f 139/176/135 146/168/135 147/167/135 140/181/135
f 141/180/136 140/181/136 147/167/136 148/171/136
f 123/154/137 124/166/137 146/168/137 145/155/137
f 136/135/138 122/124/138 144/156/138 143/170/138
f 134/165/139 135/169/139 148/171/139 147/167/139
f 139/176/140 140/181/140 152/182/140 151/183/140
f 137/178/141 138/177/141 150/184/141 149/185/141
f 181/186/142 179/187/142 150/184/142 151/183/142
f 39/49/66 38/57/66 82/95/66 83/148/66
f 37/53/66 44/52/66 88/150/66 81/149/66
f 84/147/66 40/50/66 39/49/66 83/148/66
f 43/55/66 42/54/66 86/152/66 87/151/66
f 53/97/143 9/4/143 190/87/143 192/188/143
f 4/1/144 9/4/144 53/97/144 48/96/144
f 44/52/66 43/55/66 87/151/66 88/150/66
f 141/180/145 142/179/145 154/189/145 153/190/145
f 179/187/146 178/191/146 149/185/146 150/184/146
f 185/192/147 184/193/147 152/182/147 153/190/147
f 138/177/148 139/176/148 151/183/148 150/184/148
f 187/194/149 185/192/149 153/190/149 154/189/149
f 184/193/150 181/186/150 151/183/150 152/182/150
f 140/181/151 141/180/151 153/190/151 152/182/151
f 187/194/152 154/189/152 149/185/152 178/191/152
f 142/179/153 137/178/153 149/185/153 154/189/153
f 156/145/66 157/83/66 37/53/66 81/149/66 161/195/66 162/146/66
f 160/144/154 163/93/154 159/92/154 155/51/154
f 66/122/155 74/143/155 160/144/155 73/136/155 65/134/155
f 155/51/156 157/83/156 156/145/156
f 155/51/157 159/92/157 158/84/157
f 161/195/158 160/144/158 162/146/158
f 163/93/159 160/144/159 164/94/159
f 160/144/160 161/195/160 81/149/160 73/136/160
f 55/107/161 165/108/161 54/196/161
f 53/97/162 166/111/162 174/112/162 52/98/162
f 51/101/163 173/115/163 176/116/163 50/90/163
f 50/90/164 176/116/164 175/119/164 49/102/164
f 52/98/165 174/112/165 173/115/165 51/101/165
f 54/196/166 165/108/166 166/111/166 53/97/166
f 178/191/167 179/187/167 180/79/167 177/82/167
f 179/187/168 181/186/168 182/80/168 180/79/168
f 184/193/169 185/192/169 186/77/169 183/81/169
f 185/192/170 187/194/170 188/78/170 186/77/170
f 181/186/171 184/193/171 183/81/171 182/80/171
f 177/82/172 188/78/172 187/194/172 178/191/172
f 11/10/173 12/9/173 56/104/173 55/107/173
f 56/104/174 49/102/174 175/119/174
f 190/87/175 189/86/175 191/197/175 192/188/175
f 54/196/176 53/97/176 192/188/176 191/197/176
f 10/58/177 54/196/177 191/197/177 189/86/177
f 194/60/178 193/59/178 195/198/178 196/199/178
f 55/107/179 54/196/179 196/199/179 195/198/179
f 11/10/180 55/107/180 195/198/180 193/59/180
f 54/196/181 10/58/181 194/60/181 196/199/181
f 198/200/182 200/103/182 199/89/182 197/88/182
f 50/90/183 49/102/183 200/103/183 198/200/183
f 6/7/184 50/90/184 198/200/184 197/88/184
f 12/9/185 5/85/185 49/102/185 56/104/185
